<?xml version="1.0" encoding="UTF-8"?> <svg id="Lag_1" data-name="Lag 1" xmlns="http://www.w3.org/2000/svg" viewBox="0 0 439 242.49"><defs><style>.cls-1{fill:#feaf00;}.cls-2{fill:#fe2a00;}.cls-3{fill:#fef000;}.cls-4{fill:#1ea614;}.cls-5{fill:#9fcc00;}</style></defs><title>Tegnebræt 1</title><g id="barometer"><g id="_Group_" data-name="&lt;Group&gt;"><path id="_Path_" data-name="&lt;Path&gt;" class="cls-1" d="M294.69,163l94.25-68.48A209.3,209.3,0,0,0,284.52,18.6l-36,110.79A92.84,92.84,0,0,1,294.69,163Z"/><path id="_Path_2" data-name="&lt;Path&gt;" class="cls-2" d="M312.39,217.28H428.83A207.91,207.91,0,0,0,388.94,94.51L294.69,163A91.84,91.84,0,0,1,312.39,217.28Z"/><path id="_Path_3" data-name="&lt;Path&gt;" class="cls-3" d="M220,124.86a92.07,92.07,0,0,1,28.56,4.53l36-110.79a209.58,209.58,0,0,0-129.11,0l36,110.79A92.12,92.12,0,0,1,220,124.86Z"/><path id="_Path_4" data-name="&lt;Path&gt;" class="cls-4" d="M145.23,163,51,94.51A207.91,207.91,0,0,0,11.09,217.28H127.54A91.9,91.9,0,0,1,145.23,163Z"/><path id="_Path_5" data-name="&lt;Path&gt;" class="cls-5" d="M191.4,129.39l-36-110.79A209.29,209.29,0,0,0,51,94.51L145.23,163A92.84,92.84,0,0,1,191.4,129.39Z"/></g></g></svg>